<svg width="1728" height="699" viewBox="0 0 1728 699" fill="none" xmlns="http://www.w3.org/2000/svg">
  <mask id="mask0_51_189" style="mask-type:alpha" maskUnits="userSpaceOnUse" x="0" y="0" width="1728" height="699">
    <rect width="1728" height="699" fill="#D9D9D9"/>
  </mask>
  <g mask="url(#mask0_51_189)">
    <path
      d="M-1236 688.088C-1199.5 688.088 -922.099 1001.99 -555.011 1001.99C-45.0522 1001.99 229.52 -141.524 947.752 178.128C1517.15 431.544 1767.44 458.658 1871.73 282.415"
      stroke="#D3D5D6"/>
    <path
      d="M-1236 416.944C-1203.67 440.929 -922.099 1001.99 -555.011 1001.99C-45.0522 1001.99 312.949 -16.3808 1031.18 303.272C1600.58 556.687 1690.27 516.015 1871.73 386.701"
      stroke="#D3D5D6"/>
    <path
      d="M-1236 854.945C-1199.5 854.945 -922.099 1010.33 -555.011 1010.33C-45.0522 1010.33 235.476 -328.158 906.037 82.1851C1395.14 381.486 1684.01 500.373 1871.73 365.844"
      stroke="#D3D5D6"/>
  </g>
</svg>
