<svg width="21" height="20" viewBox="0 0 21 20" fill="none" xmlns="http://www.w3.org/2000/svg">
<path id="voredev." d="M21 1.93548C21 4.81183 20.0867 7.84946 18.26 11.0484C16.4751 14.1532 14.3347 16.5726 11.8386 18.3064C10.2072 19.4355 8.68725 20 7.27888 20C6.06574 20 5.15239 19.5296 4.53884 18.5887C4.03685 17.7957 3.78586 16.7809 3.78586 15.5444C3.78586 15.2487 3.82769 14.8118 3.91136 14.2339C4.00896 13.6425 4.05777 13.2056 4.05777 12.9234C4.05777 12.8024 3.99502 12.7218 3.86952 12.6815C3.74402 12.6411 3.53486 12.5806 3.24203 12.5C2.4751 12.2849 1.88247 12.0094 1.46414 11.6734C0.488048 10.9073 0 9.78495 0 8.30645C0 6.41129 0.85757 4.55645 2.57271 2.74194C4.30179 0.913979 6.14243 0 8.09462 0C10.0189 0 10.9811 1.07527 10.9811 3.22581C10.9811 4.47581 10.6255 6.31048 9.91434 8.72984C9.21713 11.1492 8.86853 12.9906 8.86853 14.254C8.86853 16.082 9.39841 16.996 10.4582 16.996C11.8386 16.996 13.24 16.0013 14.6624 14.0121C15.9452 12.2379 16.6633 10.6116 16.8167 9.13306C16.8307 8.99866 16.8377 8.75 16.8377 8.3871C16.8377 7.75538 16.7191 6.82796 16.4821 5.60484C16.245 4.38172 16.1265 3.4543 16.1265 2.82258C16.1265 1.93548 16.496 1.22984 17.2351 0.705645C17.8904 0.235215 18.6922 0 19.6404 0C20.5468 0 21 0.645161 21 1.93548ZM5.43825 4.7379C5.43825 4.17339 5.18028 3.89113 4.66434 3.89113C4.10657 3.89113 3.52789 4.22715 2.92829 4.89919C1.99402 5.96102 1.52689 7.2043 1.52689 8.62903C1.52689 9.3414 1.72211 9.9664 2.11255 10.504C2.55877 11.0954 3.13745 11.3911 3.84861 11.3911C4.12749 11.3911 4.30179 11.1358 4.37151 10.625C4.46912 9.97984 4.67132 8.87769 4.97809 7.31855C5.28486 5.75941 5.43825 4.89919 5.43825 4.7379Z" fill="#42446E"/>
</svg>
