<svg width="160" height="30" viewBox="0 0 160 30" fill="none" xmlns="http://www.w3.org/2000/svg">
  <g id="voredev.">
    <path
      d="M19.9528 11.6888C19.9528 14.5346 19.085 17.5399 17.3494 20.7048C15.6535 23.7766 13.6198 26.1702 11.2483 27.8856C9.69817 29.0027 8.25405 29.5612 6.91591 29.5612C5.76326 29.5612 4.89546 29.0957 4.31251 28.1649C3.83555 27.3803 3.59707 26.3763 3.59707 25.1529C3.59707 24.8604 3.63682 24.4282 3.71631 23.8564C3.80905 23.2713 3.85542 22.8391 3.85542 22.5598C3.85542 22.4402 3.7958 22.3604 3.67656 22.3205C3.55732 22.2806 3.35859 22.2207 3.08036 22.141C2.35167 21.9282 1.7886 21.6556 1.39113 21.3231C0.463711 20.5652 0 19.4548 0 17.992C0 16.117 0.814806 14.2819 2.44442 12.4867C4.08728 10.6782 5.83613 9.77394 7.69097 9.77394C9.51931 9.77394 10.4335 10.8378 10.4335 12.9654C10.4335 14.2021 10.0956 16.0173 9.41995 18.4109C8.7575 20.8045 8.42628 22.6263 8.42628 23.8763C8.42628 25.6848 8.92974 26.5891 9.93665 26.5891C11.2483 26.5891 12.5798 25.6051 13.9312 23.637C15.1501 21.8816 15.8324 20.2726 15.9781 18.8098C15.9914 18.6769 15.998 18.4309 15.998 18.0718C15.998 17.4468 15.8854 16.5293 15.6602 15.3191C15.4349 14.109 15.3223 13.1915 15.3223 12.5665C15.3223 11.6888 15.6734 10.9907 16.3756 10.4721C16.9983 10.0066 17.7601 9.77394 18.661 9.77394C19.5222 9.77394 19.9528 10.4122 19.9528 11.6888ZM5.16706 14.4614C5.16706 13.9029 4.92196 13.6237 4.43175 13.6237C3.90179 13.6237 3.35196 13.9561 2.78226 14.621C1.89459 15.6715 1.45075 16.9016 1.45075 18.3112C1.45075 19.016 1.63624 19.6343 2.0072 20.1662C2.43117 20.7513 2.981 21.0439 3.65669 21.0439C3.92167 21.0439 4.08728 20.7912 4.15352 20.2859C4.24626 19.6476 4.43837 18.5572 4.72985 17.0146C5.02132 15.4721 5.16706 14.621 5.16706 14.4614Z"
      fill="#42446E"/>
    <path
      d="M41.9327 17.1742C41.9327 20.3524 40.7734 23.1848 38.4548 25.6715C36.0965 28.1981 33.3408 29.4614 30.1876 29.4614C27.9882 29.4614 26.1466 28.7234 24.6628 27.2473C23.1921 25.758 22.4568 23.9096 22.4568 21.7021C22.4568 18.5638 23.7155 15.7846 26.2328 13.3644C28.7103 10.9707 31.5191 9.77394 34.659 9.77394C36.7259 9.77394 38.4548 10.492 39.846 11.9282C41.2371 13.3511 41.9327 15.0997 41.9327 17.1742ZM37.1432 15.5386C37.1432 12.6529 36.1164 11.2101 34.0629 11.2101C31.9165 11.2101 30.1809 12.7926 28.856 15.9574C27.7961 18.4707 27.2662 20.9907 27.2662 23.5173C27.2662 26.5093 28.3128 28.0053 30.4062 28.0053C32.632 28.0053 34.3874 26.4096 35.6726 23.2181C36.653 20.758 37.1432 18.1981 37.1432 15.5386Z"
      fill="#42446E"/>
    <path
      d="M62.7202 11.1303C62.7202 11.9016 62.4618 12.8856 61.9451 14.0824C61.3489 15.4654 60.7262 16.1569 60.077 16.1569C59.6398 16.1569 59.249 15.6316 58.9045 14.5811C58.5733 13.5173 58.1228 12.9854 57.5531 12.9854C55.9632 12.9854 54.7708 14.8936 53.9759 18.7101L52.1277 27.5465C52.0482 27.9189 51.8826 28.371 51.6309 28.9029C51.4586 29.0492 50.4451 29.1223 48.5902 29.1223C47.7291 29.1223 47.2985 28.9162 47.2985 28.504C47.2985 28.3976 47.378 27.9654 47.5369 27.2074L49.7031 16.8949C49.9284 15.8178 50.041 15 50.041 14.4415C50.041 13.4707 49.7164 12.9854 49.0672 12.9854C48.471 12.9854 47.8152 13.4242 47.0997 14.3019C46.3975 15.1795 45.9736 15.6184 45.8278 15.6184C45.5894 15.6184 45.4701 15.492 45.4701 15.2394C45.4701 14.5213 46.0266 13.5306 47.1395 12.2673C48.7029 10.4854 50.2 9.59441 51.6309 9.59441C53.075 9.59441 53.797 10.4388 53.797 12.1277C53.797 12.4069 53.7705 12.8191 53.7175 13.3644C53.6778 13.9096 53.6579 14.3218 53.6579 14.6011C53.6579 14.6941 53.6778 14.7606 53.7175 14.8005C53.85 14.641 54.1283 14.2553 54.5522 13.6436C55.2809 12.5931 56.1752 11.7154 57.2351 11.0106C58.4408 10.2128 59.6133 9.81383 60.7527 9.81383C62.0643 9.81383 62.7202 10.2527 62.7202 11.1303Z"
      fill="#42446E"/>
    <path
      d="M81.7588 13.504C81.7588 15.9774 80.1027 17.8059 76.7905 18.9894C74.8959 19.6676 72.4713 20.0066 69.5168 20.0066C68.8544 20.0066 68.5232 20.5452 68.5232 21.6223C68.5232 23.0186 69.02 24.2354 70.0137 25.2726C71.0206 26.3098 72.2196 26.8285 73.6107 26.8285C74.6971 26.8285 76.0088 26.4096 77.5456 25.5718C79.0825 24.734 79.8443 24.3152 79.8311 24.3152C80.1093 24.3152 80.2484 24.4415 80.2484 24.6941C80.2484 25.4388 79.109 26.4362 76.8302 27.6862C74.6574 28.8697 72.6303 29.4614 70.749 29.4614C68.6821 29.4614 66.973 28.8564 65.6217 27.6463C64.2305 26.383 63.535 24.7274 63.535 22.6795C63.535 19.4215 64.8863 16.4561 67.5891 13.7832C70.3051 11.0971 73.2861 9.75399 76.5321 9.75399C77.963 9.75399 79.1355 10.0133 80.0497 10.5319C81.1891 11.1835 81.7588 12.1742 81.7588 13.504ZM77.4065 13.125C77.4065 11.9016 76.7573 11.2899 75.4589 11.2899C73.9088 11.2899 72.3123 12.4601 70.6695 14.8005C69.7023 16.1835 69.2187 17.1742 69.2187 17.7726C69.2187 18.3444 69.7089 18.6303 70.6894 18.6303C72.3057 18.6303 73.7962 18.125 75.1608 17.1144C76.658 16.0239 77.4065 14.6941 77.4065 13.125Z"
      fill="#42446E"/>
    <path
      d="M107.654 0.398936C107.402 1.17021 107.111 2.10771 106.779 3.21144L103.142 20.4056C102.851 21.7886 102.705 22.9122 102.705 23.7766C102.705 25.1729 103.136 25.871 103.997 25.871C104.461 25.871 105.077 25.5918 105.845 25.0332C106.627 24.4747 107.084 24.1955 107.216 24.1955C107.495 24.1955 107.634 24.3285 107.634 24.5944C107.634 25.113 107.018 25.9043 105.786 26.9681C103.865 28.6303 102.063 29.4614 100.38 29.4614C98.565 29.4614 97.6111 27.7527 97.5183 24.3351C94.5373 27.7527 91.8412 29.4614 89.4299 29.4614C87.734 29.4614 86.376 28.8697 85.3559 27.6862C84.3754 26.5559 83.8852 25.1263 83.8852 23.3976C83.8852 20.2726 85.1306 17.2806 87.6214 14.4215C90.3242 11.3231 93.1594 9.77394 96.1272 9.77394C97.2798 9.77394 98.5584 10.1862 99.9627 11.0106C100.122 11.1037 100.221 11.1503 100.261 11.1503C100.367 11.1503 100.519 10.6848 100.718 9.75399L101.712 4.96676C101.738 4.83378 101.751 4.64761 101.751 4.40825C101.751 3.69016 101.526 3.15824 101.076 2.8125C100.903 2.67952 100.479 2.4867 99.8037 2.23404C99.3533 2.06117 99.1281 1.84176 99.1281 1.5758C99.1281 1.26995 99.4195 1.09043 100.002 1.03723C101.738 0.904255 102.884 0.804521 103.441 0.738032C104.699 0.591755 105.825 0.385638 106.819 0.119681C107.124 0.0398936 107.303 0 107.356 0C107.554 0 107.654 0.132979 107.654 0.398936ZM99.3864 14.6011C99.3864 12.3936 98.3464 11.2899 96.2663 11.2899C94.279 11.2899 92.4241 12.7593 90.7018 15.6981C89.1649 18.3178 88.3965 20.7114 88.3965 22.879C88.3965 23.9029 88.6548 24.7606 89.1715 25.4521C89.7412 26.2234 90.5163 26.609 91.4967 26.609C93.5238 26.609 95.3919 25.0798 97.101 22.0213C98.6246 19.3085 99.3864 16.8351 99.3864 14.6011Z"
      fill="#42446E"/>
    <path
      d="M128.024 13.504C128.024 15.9774 126.368 17.8059 123.056 18.9894C121.161 19.6676 118.736 20.0066 115.782 20.0066C115.119 20.0066 114.788 20.5452 114.788 21.6223C114.788 23.0186 115.285 24.2354 116.279 25.2726C117.286 26.3098 118.485 26.8285 119.876 26.8285C120.962 26.8285 122.274 26.4096 123.811 25.5718C125.348 24.734 126.109 24.3152 126.096 24.3152C126.374 24.3152 126.513 24.4415 126.513 24.6941C126.513 25.4388 125.374 26.4362 123.095 27.6862C120.922 28.8697 118.895 29.4614 117.014 29.4614C114.947 29.4614 113.238 28.8564 111.887 27.6463C110.496 26.383 109.8 24.7274 109.8 22.6795C109.8 19.4215 111.151 16.4561 113.854 13.7832C116.57 11.0971 119.551 9.75399 122.797 9.75399C124.228 9.75399 125.401 10.0133 126.315 10.5319C127.454 11.1835 128.024 12.1742 128.024 13.504ZM123.672 13.125C123.672 11.9016 123.022 11.2899 121.724 11.2899C120.174 11.2899 118.577 12.4601 116.935 14.8005C115.967 16.1835 115.484 17.1742 115.484 17.7726C115.484 18.3444 115.974 18.6303 116.954 18.6303C118.571 18.6303 120.061 18.125 121.426 17.1144C122.923 16.0239 123.672 14.6941 123.672 13.125Z"
      fill="#42446E"/>
    <path
      d="M150.56 11.6888C150.56 14.5346 149.692 17.5399 147.957 20.7048C146.261 23.7766 144.227 26.1702 141.856 27.8856C140.306 29.0027 138.861 29.5612 137.523 29.5612C136.371 29.5612 135.503 29.0957 134.92 28.1649C134.443 27.3803 134.204 26.3763 134.204 25.1529C134.204 24.8604 134.244 24.4282 134.324 23.8564C134.416 23.2713 134.463 22.8391 134.463 22.5598C134.463 22.4402 134.403 22.3604 134.284 22.3205C134.165 22.2806 133.966 22.2207 133.688 22.141C132.959 21.9282 132.396 21.6556 131.999 21.3231C131.071 20.5652 130.607 19.4548 130.607 17.992C130.607 16.117 131.422 14.2819 133.052 12.4867C134.695 10.6782 136.443 9.77394 138.298 9.77394C140.127 9.77394 141.041 10.8378 141.041 12.9654C141.041 14.2021 140.703 16.0173 140.027 18.4109C139.365 20.8045 139.034 22.6263 139.034 23.8763C139.034 25.6848 139.537 26.5891 140.544 26.5891C141.856 26.5891 143.187 25.6051 144.539 23.637C145.757 21.8816 146.44 20.2726 146.586 18.8098C146.599 18.6769 146.605 18.4309 146.605 18.0718C146.605 17.4468 146.493 16.5293 146.268 15.3191C146.042 14.109 145.93 13.1915 145.93 12.5665C145.93 11.6888 146.281 10.9907 146.983 10.4721C147.606 10.0066 148.367 9.77394 149.268 9.77394C150.13 9.77394 150.56 10.4122 150.56 11.6888ZM135.774 14.4614C135.774 13.9029 135.529 13.6237 135.039 13.6237C134.509 13.6237 133.959 13.9561 133.39 14.621C132.502 15.6715 132.058 16.9016 132.058 18.3112C132.058 19.016 132.244 19.6343 132.615 20.1662C133.039 20.7513 133.588 21.0439 134.264 21.0439C134.529 21.0439 134.695 20.7912 134.761 20.2859C134.854 19.6476 135.046 18.5572 135.337 17.0146C135.629 15.4721 135.774 14.621 135.774 14.4614Z"
      fill="#42446E"/>
    <path
      d="M160 26.2899C160 26.742 159.377 27.4734 158.132 28.484C156.9 29.4947 156.052 30 155.588 30C155.217 30 154.654 29.4415 153.899 28.3245C153.157 27.2473 152.786 26.4894 152.786 26.0505C152.786 25.5851 153.409 24.867 154.654 23.8963C155.86 22.9388 156.721 22.4601 157.238 22.4601C157.635 22.4601 158.205 23.0053 158.947 24.0957C159.649 25.133 160 25.8644 160 26.2899Z"
      fill="#42446E"/>
  </g>
</svg>
